<svg width="72" height="72" viewBox="0 0 72 72" fill="none" xmlns="http://www.w3.org/2000/svg">
<path d="M45.2388 18.4999H48.4445" stroke="#E95223" stroke-width="1.166" stroke-miterlimit="10" stroke-linecap="round" stroke-linejoin="round"/>
<path d="M45.2388 24.0682H46.8416" stroke="#E95223" stroke-width="1.166" stroke-miterlimit="10" stroke-linecap="round" stroke-linejoin="round"/>
<path d="M45.2388 29.6364H48.4445" stroke="#E95223" stroke-width="1.166" stroke-miterlimit="10" stroke-linecap="round" stroke-linejoin="round"/>
<path d="M45.2388 35.2046H46.8416" stroke="#E95223" stroke-width="1.166" stroke-miterlimit="10" stroke-linecap="round" stroke-linejoin="round"/>
<path d="M45.2388 40.7727H48.4445" stroke="#E95223" stroke-width="1.166" stroke-miterlimit="10" stroke-linecap="round" stroke-linejoin="round"/>
<path d="M41.2318 46.1818V17.7045C41.2318 14.6818 38.6672 12.1364 35.6217 12.1364C32.5763 12.1364 30.0117 14.6818 30.0117 17.7045V46.1818C28.5691 47.6136 27.6074 49.6818 27.6074 51.9091C27.6074 56.3636 31.1337 59.8636 35.6217 59.8636C40.1098 59.8636 43.6361 56.3636 43.6361 51.9091C43.6361 49.6818 42.6743 47.6136 41.2318 46.1818Z" stroke="#E95223" stroke-width="1.166" stroke-miterlimit="10" stroke-linecap="round" stroke-linejoin="round"/>
<path d="M35.6218 18.4999V51.909" stroke="#E95223" stroke-width="1.166" stroke-miterlimit="10" stroke-linecap="round" stroke-linejoin="round"/>
<path d="M35.6217 55.8864C37.8348 55.8864 39.6288 54.1057 39.6288 51.9091C39.6288 49.7125 37.8348 47.9318 35.6217 47.9318C33.4086 47.9318 31.6145 49.7125 31.6145 51.9091C31.6145 54.1057 33.4086 55.8864 35.6217 55.8864Z" fill="#E95223"/>
<path d="M36 71C55.33 71 71 55.33 71 36C71 16.67 55.33 1 36 1C16.67 1 1 16.67 1 36C1 55.33 16.67 71 36 71Z" stroke="#E95223" stroke-width="1.166" stroke-miterlimit="10" stroke-linecap="round" stroke-linejoin="round"/>
</svg>
