<svg width="72" height="72" viewBox="0 0 72 72" fill="none" xmlns="http://www.w3.org/2000/svg">
<path d="M45.3863 57.6364C53.0304 57.6364 59.2272 51.4396 59.2272 43.7955C59.2272 36.1514 53.0304 29.9546 45.3863 29.9546C37.7422 29.9546 31.5454 36.1514 31.5454 43.7955C31.5454 51.4396 37.7422 57.6364 45.3863 57.6364Z" stroke="#E85325" stroke-width="1.166" stroke-miterlimit="10" stroke-linecap="round" stroke-linejoin="round"/>
<path d="M45.3862 34.5682V43.7955L50.159 48.5682" stroke="#E85325" stroke-width="1.166" stroke-miterlimit="10" stroke-linecap="round" stroke-linejoin="round"/>
<path d="M36.9544 54.9319V58.4319H19.1362V16.2728H36.9544V32.6591" stroke="#E85325" stroke-width="1.166" stroke-miterlimit="10" stroke-linecap="round" stroke-linejoin="round"/>
<path d="M23.5908 52.2273H32.4999" stroke="#E85325" stroke-width="1.166" stroke-miterlimit="10" stroke-linecap="round" stroke-linejoin="round"/>
<path d="M23.5908 46.3409H31.7045" stroke="#E85325" stroke-width="1.166" stroke-miterlimit="10" stroke-linecap="round" stroke-linejoin="round"/>
<path d="M23.5908 40.2955H31.8635" stroke="#E85325" stroke-width="1.166" stroke-miterlimit="10" stroke-linecap="round" stroke-linejoin="round"/>
<path d="M23.5908 34.25H32.4999" stroke="#E85325" stroke-width="1.166" stroke-miterlimit="10" stroke-linecap="round" stroke-linejoin="round"/>
<path d="M23.5908 28.3637H32.4999" stroke="#E85325" stroke-width="1.166" stroke-miterlimit="10" stroke-linecap="round" stroke-linejoin="round"/>
<path d="M23.5908 22.3182H32.4999" stroke="#E85325" stroke-width="1.166" stroke-miterlimit="10" stroke-linecap="round" stroke-linejoin="round"/>
<path d="M32.1818 13.5682H24.2273V15.3182H32.1818V13.5682Z" stroke="#E85325" stroke-width="1.166" stroke-miterlimit="10" stroke-linecap="round" stroke-linejoin="round"/>
<path d="M36 71C55.33 71 71 55.33 71 36C71 16.67 55.33 1 36 1C16.67 1 1 16.67 1 36C1 55.33 16.67 71 36 71Z" stroke="#E85325" stroke-width="1.166" stroke-miterlimit="10" stroke-linecap="round" stroke-linejoin="round"/>
</svg>
