<svg width="72" height="72" viewBox="0 0 72 72" fill="none" xmlns="http://www.w3.org/2000/svg">
<path d="M36.0002 56.8409C36.7909 56.8409 37.432 56.1998 37.432 55.4091C37.432 54.6183 36.7909 53.9772 36.0002 53.9772C35.2094 53.9772 34.5684 54.6183 34.5684 55.4091C34.5684 56.1998 35.2094 56.8409 36.0002 56.8409Z" fill="#E85325"/>
<path d="M48.7274 14.5227V57.4773C48.7274 58.75 47.7729 59.8636 46.6592 59.8636H25.182C24.0683 59.8636 23.1138 58.75 23.1138 57.4773V14.5227C23.1138 13.25 24.0683 12.1364 25.182 12.1364H46.6592C47.932 12.1364 48.7274 13.25 48.7274 14.5227Z" stroke="#E85325" stroke-width="1.166" stroke-miterlimit="10" stroke-linecap="round" stroke-linejoin="round"/>
<path d="M40.614 13.0908H31.3867V14.0445H40.614V13.0908Z" stroke="#E85325" stroke-width="1.166" stroke-miterlimit="10" stroke-linecap="round" stroke-linejoin="round"/>
<path d="M36 71C55.33 71 71 55.33 71 36C71 16.67 55.33 1 36 1C16.67 1 1 16.67 1 36C1 55.33 16.67 71 36 71Z" stroke="#E85325" stroke-width="1.166" stroke-miterlimit="10" stroke-linecap="round" stroke-linejoin="round"/>
</svg>
