<svg width="18" height="18" viewBox="0 0 18 18" fill="none" xmlns="http://www.w3.org/2000/svg">
<path fill-rule="evenodd" clip-rule="evenodd" d="M11.8049 10.2721C13.615 7.73227 13.3807 4.18343 11.1021 1.90482C8.56226 -0.634939 4.44456 -0.634939 1.90481 1.90482C-0.634936 4.44457 -0.634936 8.56232 1.90481 11.102C4.18343 13.3807 7.7322 13.615 10.272 11.8049L16.4671 18L18 16.4671L11.8049 10.2721ZM9.56921 3.43769C11.2624 5.13086 11.2624 7.87599 9.56921 9.56916C7.87604 11.2623 5.13085 11.2623 3.43768 9.56916C1.74452 7.87599 1.74452 5.13086 3.43768 3.43769C5.13085 1.74453 7.87604 1.74453 9.56921 3.43769Z" fill="black" fill-opacity="0.8"/>
</svg>
