<svg width="18" height="18" viewBox="0 0 18 18" fill="none" xmlns="http://www.w3.org/2000/svg">
<path fill-rule="evenodd" clip-rule="evenodd" d="M18 15.6V18H0V15.6C0 15.6 1 10.8 9 10.8C17 10.8 18 15.6 18 15.6ZM13 4.2C13 3.36932 12.7654 2.55729 12.3259 1.86661C11.8864 1.17592 11.2616 0.637596 10.5307 0.319708C9.79983 0.00181979 8.99556 -0.0813542 8.21964 0.0807037C7.44371 0.242762 6.73098 0.642773 6.17157 1.23015C5.61216 1.81753 5.2312 2.5659 5.07686 3.38062C4.92252 4.19534 5.00173 5.03982 5.30448 5.80727C5.60723 6.57472 6.11992 7.23067 6.77772 7.69217C7.43551 8.15368 8.20887 8.4 9 8.4C10.0609 8.4 11.0783 7.9575 11.8284 7.16985C12.5786 6.3822 13 5.31391 13 4.2Z" fill="black" fill-opacity="0.8"/>
</svg>
