<svg width="96" height="50" viewBox="0 0 96 50" fill="none" xmlns="http://www.w3.org/2000/svg">
<g opacity="0.5">
<path d="M79.5918 28.3695L78.2641 26.5961H62.4378L68.891 35.7552C62.1944 37.0435 55.8787 31.5251 55.9634 25.1043C55.9771 23.5841 56.2956 22.0815 56.9005 20.6831C57.5053 19.2847 58.3846 18.018 59.4877 16.9559C60.5909 15.8938 61.8961 15.0572 63.3283 14.4944C64.7606 13.9315 66.2915 13.6535 67.8331 13.6763C74.8841 13.7128 81.9139 21.208 79.5865 28.3695M89.0865 39.6046C89.0865 39.6046 93.7783 33.5645 93.7995 25.6989C93.8365 10.2494 82.8607 0.213982 67.5475 0.187903C63.4549 0.165128 59.4161 1.1082 55.7685 2.93838C52.1209 4.76856 48.9703 7.43272 46.5797 10.7084C48.1169 12.8042 49.2847 15.1407 50.0338 17.6195H43.0198C42.6625 18.7187 42.3833 19.8411 42.1841 20.9785H50.8378C51.0465 22.2583 51.1508 23.5525 51.1499 24.8487C51.1552 29.9428 49.5646 34.9142 46.5956 39.083C48.9324 42.4572 52.0712 45.2162 55.7381 47.1191C59.405 49.022 63.4884 50.011 67.6321 49.9999C71.5529 49.9748 75.4007 48.9525 78.8036 47.032L80.4169 49.1184H95.9999L89.0865 39.6046Z" fill="#797D82"/>
<path d="M27.4633 32.7039H33.9113C33.9113 32.9856 30.6106 36.1568 25.649 36.1568C20.1955 36.1568 14.012 31.9059 13.8956 25.1043C13.7687 18.0576 19.9416 13.4363 25.649 13.6293C30.2721 13.791 32.0335 15.1002 34.6412 17.6038H42.163H50.0444C49.2871 15.1291 48.1123 12.798 46.5692 10.7084C46.4052 10.4893 46.2518 10.2598 46.0772 10.0408C42.2899 5.06479 35.6992 0.0157838 25.448 0.000136068C20.0096 -0.0175224 14.7086 1.68399 10.3228 4.85503C5.93704 8.02607 2.69734 12.4997 1.07907 17.6195C1.04204 17.7342 1.00501 17.8594 0.973275 17.9742C0.329005 20.1945 0.00143587 22.4924 0 24.8018C0.0135996 26.9919 0.305024 29.1717 0.867485 31.2904C1.82602 34.7742 3.53519 38.0131 5.87843 40.7864C8.22167 43.5597 11.1439 45.8021 14.4458 47.3606L14.6097 47.4336C14.6435 47.4524 14.6789 47.4681 14.7155 47.4806C18.2067 49.0352 21.993 49.8405 25.8236 49.8434C29.831 49.8183 33.7765 48.8655 37.3422 47.0618C40.9078 45.258 43.9941 42.6536 46.3523 39.4585C46.4475 39.3281 46.5322 39.1925 46.6274 39.0621C49.5955 34.891 51.186 29.9182 51.1817 24.8227C51.1826 23.5265 51.0782 22.2322 50.8696 20.9525H27.4633V32.6883V32.7039Z" fill="#797D82"/>
</g>
</svg>
