<svg width="143" height="34" viewBox="0 0 143 34" fill="none" xmlns="http://www.w3.org/2000/svg">
<path fill-rule="evenodd" clip-rule="evenodd" d="M5.94471 23.8296V23.7353H25.1952V21.7754C25.1952 14.7235 20.0609 9.55071 12.6453 9.55071C5.22971 9.55071 0 14.7235 0 21.7754C0 28.8273 5.22971 34 12.6453 34C18.2087 34 22.4714 31.1442 24.2419 26.6989H18.2087C17.017 28.2346 15.1648 28.9081 12.6453 28.9081C9.13157 28.9081 6.70738 26.9346 5.94471 23.8296ZM6.08771 19.2698V19.1755C6.98657 16.3534 9.3699 14.6157 12.6453 14.6157C15.9207 14.6157 18.2972 16.3534 19.2029 19.1755V19.2698H6.08771ZM48.7698 20.1252V33.3871H43.1111V20.1252C43.1111 16.3332 41.1159 14.7369 38.3444 14.7369C35.573 14.7369 33.5778 16.313 33.5778 20.1252V33.3871H27.919V20.1252C27.919 12.8376 32.2295 9.55071 37.7997 9.54398C41.3202 9.54398 44.1734 10.9988 45.8826 13.6323H45.9779C47.6462 10.9988 50.4994 9.54398 54.0608 9.54398C59.6242 9.54398 63.9006 12.8376 63.9006 20.1252V33.3871H58.2419V20.1252C58.2419 16.2861 56.1854 14.7369 53.4752 14.7369C50.765 14.7369 48.7698 16.3601 48.7698 20.1252ZM72.3035 0H66.6448V21.5868C66.6448 29.1236 71.7588 34 79.1743 34C86.5899 34 91.8196 28.8273 91.8196 21.7754C91.8196 13.5448 85.8545 9.55071 80.2434 9.55071C76.7229 9.55071 73.9174 11.0527 72.3989 13.4033H72.3035V0ZM79.1948 14.7639C83.3281 14.7639 86.1337 17.6803 86.1337 21.7686V21.7754C86.1337 25.8637 83.3622 28.7801 79.1948 28.7801C75.0273 28.7801 72.3035 25.8772 72.3035 21.7754C72.3035 17.6735 75.0614 14.7639 79.1948 14.7639ZM100.434 23.8431V23.7488L119.705 23.7353V21.7754C119.705 14.7235 114.57 9.55071 107.155 9.55071C99.7391 9.55071 94.5094 14.7235 94.5094 21.7754C94.5094 28.8273 99.7391 34 107.155 34C112.698 34 116.974 31.1307 118.731 26.7124H112.698C111.506 28.248 109.654 28.9216 107.134 28.9216C103.621 28.9216 101.196 26.9481 100.434 23.8431ZM143 19.9838V20.1252H137.389V19.8895C137.389 16.1109 135.489 14.7639 132.731 14.7639C129.973 14.7639 128.074 16.1311 128.074 19.8895V33.3601H122.415V19.8895C122.415 12.9116 126.596 9.54398 132.731 9.54398C138.867 9.54398 143 12.8847 143 19.9838ZM107.942 15.3545C111.218 15.3545 113.594 17.0922 114.5 19.9143H107.939H101.378C102.277 17.0922 104.667 15.3545 107.942 15.3545Z" fill="#E95223"/>
</svg>
