<svg width="171" height="27" viewBox="0 0 171 27" fill="none" xmlns="http://www.w3.org/2000/svg">
<g opacity="0.5">
<path fill-rule="evenodd" clip-rule="evenodd" d="M14.4033 4.47201H14.6977V0.624612H0V0.902799C1.6945 2.29899 1.92698 2.7084 1.92698 4.23581V22.8692C1.92698 24.3966 1.6945 24.806 0 26.2074V26.4646H7.62526V26.2074C5.91009 24.8952 5.61045 24.3966 5.61045 22.9374V13.6837H7.26363C9.42308 13.6837 9.80538 13.8307 11.6445 16.2241H11.8822V10.1565H11.6239C9.78471 12.5395 9.40242 12.6917 7.24296 12.6917H5.58979V1.5694H8.11088C9.14411 1.5694 9.99652 1.91058 14.3826 4.47201H14.4033ZM20.2049 15.4263H15.1007L17.5185 7.92049C17.6321 8.18818 17.7406 8.48736 17.8646 8.83903L20.2049 15.4263ZM24.219 17.6203L19.7916 5.26983H15.7878V5.50602C16.2474 5.9151 16.6552 6.38056 17.0018 6.89172L13.6903 17.1007C13.1014 18.9325 12.7191 19.5152 11.2157 20.9323V21.1948H15.8653V20.9323C14.5944 20.1398 14.1708 19.6201 14.1708 18.8695C14.211 18.286 14.34 17.7123 14.5531 17.1689L14.8424 16.2661H20.5252L21.0418 17.7253C21.2608 18.2522 21.3901 18.813 21.4241 19.3839C21.4241 19.9088 21.0624 20.376 20.086 20.9586V21.221H26.5489V20.9586C24.9991 19.6884 24.7872 19.2632 24.219 17.6466V17.6203ZM33.952 4.49825H34.2517V0.750583C32.778 0.464285 31.283 0.306247 29.7829 0.278187C25.5208 0.278187 23.4285 3.1598 23.4285 6.23561C23.4285 9.78907 25.6913 11.9201 28.5947 14.3713C31.7254 17.0377 33.5697 18.6543 33.5697 21.7197C33.5697 24.2601 31.9217 25.8085 29.7158 25.8085C27.7888 25.8085 26.2648 25.0317 22.2197 21.8036H21.8632L23.3407 26.0027C25.1199 26.5102 26.9586 26.7697 28.8065 26.7743C33.6576 26.7743 36.4731 23.7877 36.4731 19.6306C36.4731 15.8042 34.2723 13.8569 31.1365 11.264C28.2537 8.89152 26.2854 6.98095 26.2854 4.22531C26.2621 3.82347 26.3229 3.42118 26.4636 3.04492C26.6044 2.66866 26.8221 2.32696 27.1022 2.04232C27.3824 1.75769 27.7187 1.53658 28.089 1.39354C28.4593 1.25051 28.8553 1.1888 29.2508 1.21248C30.501 1.21248 31.3689 1.73736 33.952 4.46151V4.49825ZM52.6122 4.49825H52.9067V0.619362H35.5845V4.47201H35.879C39.9654 1.84759 40.792 1.50117 41.7478 1.50117H42.4039V22.9111C42.4039 24.3756 42.1042 24.8742 40.3891 26.1812V26.4436H48.1021V26.1812C46.3818 24.8742 46.0873 24.3756 46.0873 22.9111V1.50117H46.7434C47.694 1.50117 48.5206 1.84759 52.6122 4.47201V4.49825ZM74.7027 3.81065H75.0023V0.472395C73.0389 0.17288 71.057 0.0150197 69.0716 0C60.0721 0 54.7613 5.10186 54.7613 13.5525C54.7613 21.8614 59.8603 27 68.7565 27C70.7948 27.0027 72.8249 26.7362 74.7957 26.2074L75.4466 22.5332H75.1573C71.8303 25.3938 70.3476 26.0604 67.9247 26.0604C61.2707 26.0604 59.0492 20.9586 59.0492 13.4108C59.0492 5.72647 61.2707 1.03402 67.5631 1.03402C69.5727 1.03402 70.9934 1.50641 74.7182 3.78966L74.7027 3.81065ZM73.8451 13.4318C73.8451 17.6886 73.4887 20.5072 70.4561 20.5072C67.4236 20.5072 67.0671 17.6886 67.0671 13.4265C67.0671 9.16446 67.4081 6.35108 70.4561 6.35108C73.5042 6.35108 73.8451 9.14346 73.8451 13.4055V13.4318ZM77.4614 13.4318C77.4614 8.92826 74.837 5.55851 70.4716 5.55851C66.1062 5.55851 63.487 8.95975 63.487 13.4318C63.487 17.9038 66.1114 21.305 70.4716 21.305C74.8319 21.305 77.4459 17.8565 77.4459 13.4055L77.4614 13.4318ZM93.0374 26.4226L100.58 26.4698V26.2074C98.8855 24.8112 98.653 24.4018 98.653 22.8744V4.21481C98.653 2.6874 98.8855 2.27799 100.58 0.902799V0.645608L95.2434 0.598366L89.3178 19.6726L83.2579 0.619362H77.8386V0.902799C78.6025 1.53259 79.3049 2.23568 79.936 3.00233V21.0583C79.936 23.1578 79.6829 23.9819 77.7766 26.2179V26.4803H83.8107V26.2179C81.2689 24.1184 80.9124 23.2313 80.9124 21.0583V4.9549C80.9538 5.08087 80.9951 5.19634 81.0364 5.33281L87.8248 26.6588H88.1244L94.9386 4.7082V22.8272C94.9386 24.3546 94.7061 24.764 93.0116 26.1392L93.0374 26.4226ZM114.864 8.54509C114.864 13.3845 113.743 15.4106 110.101 15.4106H107.973V1.5694H109.45C113.49 1.5694 114.849 3.31201 114.849 8.51885L114.864 8.54509ZM118.801 8.37189C118.801 2.56143 114.797 0.650854 109.378 0.650854H102.373V0.902799C104.067 2.29899 104.3 2.7084 104.3 4.23581V22.8692C104.3 24.3966 104.067 24.806 102.373 26.2022V26.4646H109.998V26.2022C108.283 24.8952 107.988 24.3966 107.988 22.9321V16.3291H109.977C114.761 16.3291 118.786 14.2611 118.786 8.34564L118.801 8.37189ZM128.1 17.043H120.888L124.432 4.0311C124.51 4.25155 124.582 4.48775 124.66 4.75544L128.085 17.043H128.1ZM171 0.902799V0.645608H165.26V0.902799C166.81 2.29899 167.27 2.96559 167.27 3.97861C167.233 4.6645 167.046 5.33337 166.722 5.93643L163.426 13.7624L159.118 4.0521C158.856 3.56732 158.705 3.02937 158.674 2.47745C158.674 1.78985 159.056 1.42768 160.094 0.866058V0.608866H147.385V0.902799C150.222 3.03382 150.604 3.86839 150.604 6.21462V21.0688L140.003 0.619362H134.723V0.902799C135.568 1.57779 136.335 2.34917 137.007 3.20179V21.1003C137.007 23.0476 136.795 23.8927 135.276 26.2022C134.108 24.7115 133.85 23.9977 133.261 21.8771L127.268 0.645608H122.102V0.902799C122.746 1.42473 123.317 2.03202 123.802 2.7084L118.822 20.9113C118.104 23.5358 117.53 24.3546 115.624 26.1602V26.4226H121.766V26.1602C120.01 24.806 119.462 24.1184 119.462 22.9321C119.492 22.2385 119.612 21.552 119.819 20.8903L120.614 17.9667H128.338L129.412 21.8141C129.662 22.5232 129.818 23.2627 129.877 24.0134C129.877 24.68 129.604 25.1314 128.327 26.1602V26.4226H141.202V26.1602C138.365 24.0606 137.983 23.1946 137.983 21.0636V4.79218L138.045 4.90765L149.25 26.4279H151.58V6.19362C151.58 4.0521 151.792 3.20179 153.254 0.892303C154.229 2.08044 155.021 3.41112 155.605 4.83942L160.177 15.1114V22.9164C160.177 24.3756 159.877 24.8742 158.167 26.1812V26.4436H165.875V26.1812C164.16 24.8742 163.866 24.3756 163.866 22.9111V14.9959L167.673 5.97842C168.479 4.0521 169.094 3.16505 171 0.902799Z" fill="#797D82"/>
</g>
</svg>
