<svg width="106" height="43" viewBox="0 0 106 43" fill="none" xmlns="http://www.w3.org/2000/svg">
<path d="M8.83118 15.8454C8.83118 20.4612 9.71946 22.6642 12.4463 22.6642C15.2661 22.6642 16.206 20.3878 16.206 15.4048C16.206 10.852 15.2661 8.62798 12.5599 8.62798C9.85374 8.62798 8.83118 10.8677 8.83118 15.8454ZM2.93856 36.9837C2.93856 39.9473 5.91328 41.909 11.5993 41.909C17.6469 41.909 20.7249 40.1676 20.7249 37.3509C20.7249 35.4993 19.3201 34.4922 16.5933 34.2037C12.1106 33.7789 8.14948 34.3611 5.1696 33.4589C4.51158 33.7713 3.95285 34.2646 3.55671 34.8829C3.16058 35.5013 2.94286 36.2199 2.92823 36.9575M22.9559 15.5045C22.9559 19.8528 19.4648 22.8478 12.6735 23.6608C8.76404 24.0857 6.41423 24.5053 6.41423 26.3621C6.41423 28.2189 9.8589 27.9357 15.5449 28.0983C21.7423 28.2609 24.9855 30.0076 24.9855 34.5132C24.9855 39.6483 20.1361 43 11.527 43C4.01793 43 0 40.6029 0 37.2302C0.00890396 36.6428 0.149863 36.0653 0.412116 35.5416C0.674369 35.018 1.05098 34.5622 1.51318 34.209C2.25595 33.6186 3.10761 33.1852 4.01793 32.9344C3.31387 32.5412 2.73166 31.9564 2.33666 31.2457C1.94165 30.5351 1.74949 29.7267 1.78173 28.9113C1.78173 25.4127 4.49305 23.4563 9.92604 23.1415C4.69963 22.2026 2.01413 19.6587 2.01413 15.8454C2.01413 11.5548 5.97525 7.97757 12.2345 7.63663C12.6993 2.81626 15.1008 0.0048168 17.7605 0.0048168C18.13 -0.0174289 18.5 0.0375429 18.8478 0.166335C19.1955 0.295128 19.5135 0.495001 19.7822 0.753597C20.0508 1.01219 20.2644 1.32401 20.4097 1.66977C20.5549 2.01554 20.6288 2.38789 20.6267 2.76381C20.6267 4.56292 19.4286 5.83227 17.8121 5.83227C16.8206 5.83227 16.144 5.1976 15.359 5.1976C14.0576 5.1976 13.4327 5.94242 13.2933 7.68908C19.346 8.0038 22.9921 11.2349 22.9921 15.5202M32.1796 20.0259C32.1796 27.6524 34.0078 31.4133 37.9173 31.4133C41.8268 31.4133 43.7014 27.6524 43.7014 20.0259C43.7014 12.3993 41.7751 8.58077 37.9173 8.58077C34.0594 8.58077 32.1796 12.4098 32.1796 20.0259ZM50.8025 20.0259C50.8025 27.2328 45.5348 32.4728 37.9173 32.4728C30.2997 32.4728 25.0733 27.2853 25.0733 20.0259C25.0733 12.7665 30.2894 7.57893 37.9069 7.57893C45.5245 7.57893 50.787 12.8242 50.787 20.0259M60.1605 20.0259C60.1605 27.6524 61.9887 31.4133 65.8982 31.4133C69.8076 31.4133 71.6823 27.6524 71.6823 20.0259C71.6823 12.3993 69.7715 8.58077 65.8982 8.58077C62.0248 8.58077 60.1605 12.4098 60.1605 20.0259ZM78.7834 20.0259C78.7834 27.2328 73.5157 32.4728 65.8982 32.4728C58.2806 32.4728 53.0697 27.2853 53.0697 20.0259C53.0697 12.7665 58.2806 7.57893 65.8982 7.57893C73.5157 7.57893 78.7834 12.8242 78.7834 20.0259ZM93.0631 31.1563C96.6059 31.1563 99.3172 27.4846 99.3172 20.7707C99.3172 14.5184 96.3993 10.8048 93.1664 10.8048C91.6171 10.8048 90.2433 11.4919 88.8334 12.8137V24.2063C88.8334 28.7592 89.9799 31.1458 93.0579 31.1458M88.8334 37.2512C88.8334 39.428 89.2001 40.5872 90.548 41.0121C91.6429 41.3845 92.4227 41.2271 92.4227 41.9142C92.4227 42.2814 92.1645 42.5489 91.6945 42.5489H79.6562C79.4934 42.565 79.3308 42.5151 79.204 42.4099C79.0773 42.3048 78.9966 42.153 78.9797 41.9877C78.9797 41.9614 78.9797 41.9352 78.9797 41.9142C78.9797 41.2796 79.713 41.4369 80.6013 41.0645C82.0061 40.4823 82.3727 39.5277 82.3727 37.2512V15.7458C82.3727 13.4693 81.9028 12.5986 80.3069 11.9325C79.4755 11.5601 78.7938 11.6125 78.7938 11.0303C78.7938 10.1334 82.0319 10.3432 88.8644 7.74678V11.3503C91.9631 8.85877 94.4988 7.58942 97.2205 7.58942C102.225 7.58942 106 11.8276 106 18.2897C106 26.4985 100.521 32.2735 92.5725 32.2735C91.3208 32.265 90.0758 32.0887 88.8696 31.749V37.2512H88.8334Z" fill="#797D82"/>
</svg>
