<svg width="71" height="70" viewBox="0 0 71 70" fill="none" xmlns="http://www.w3.org/2000/svg">
<path opacity="0.5" d="M35.5265 70C30.8316 69.9962 26.1839 69.0757 21.8517 67.2916C17.5195 65.5075 13.5886 62.8951 10.2858 59.6053C6.983 56.3155 4.37373 52.4133 2.6086 48.124C0.843467 43.8347 -0.0425859 39.2432 0.00157291 34.6145C0.315407 25.0478 3.747 16.7746 10.7028 10.0435C17.5814 3.38841 25.9469 0.182609 35.5471 0C45.2656 0.202899 53.7083 3.49493 60.6023 10.3022C67.4964 17.1094 71.0051 25.4283 71 35.0355C71.002 39.6285 70.0858 44.1769 68.3037 48.4205C66.5215 52.6642 63.9085 56.5199 60.6139 59.7672C57.3194 63.0145 53.4079 65.5896 49.1032 67.3455C44.7985 69.1013 40.185 70.0033 35.5265 70ZM31.6936 46.3826V30.3891C31.6742 29.995 31.7901 29.606 32.0225 29.2848C32.255 28.9636 32.5904 28.729 32.9747 28.6188C34.5181 28.1116 35.7426 28.9435 35.7426 30.5312V46.3877H41.3144V43.9022H39.1639V43.537C39.1639 39.3031 39.1639 35.0659 39.1639 30.8254C39.1657 30.4252 39.1416 30.0254 39.0919 29.6283C39.008 28.7018 38.6502 27.82 38.0629 27.092C37.4846 26.4792 36.7175 26.0715 35.8804 25.9321C35.0433 25.7927 34.1829 25.9294 33.4326 26.321C32.6404 26.7127 31.9301 27.2479 31.3386 27.8985C31.2965 27.9308 31.2517 27.9596 31.2049 27.9848V26.25H26.3842V28.7456H28.2312V43.9072H26.6877V46.3927L31.6936 46.3826ZM45.811 36.8058H52.7874C53.4768 36.8058 53.6517 36.6283 53.6517 35.9384C53.6517 34.1833 53.6517 32.4333 53.6517 30.6783C53.7102 29.8735 53.5417 29.0685 53.1649 28.3523C52.788 27.6361 52.2176 27.0366 51.5166 26.6203C50.6522 26.0894 49.6755 25.7615 48.6621 25.6622C47.6487 25.5628 46.6256 25.6945 45.6721 26.0471C44.6731 26.3366 43.8023 26.9496 43.2002 27.7871C42.5981 28.6247 42.2999 29.6378 42.3537 30.663C42.3845 34.4319 42.3537 38.2007 42.3537 41.9696C42.3185 42.8236 42.5362 43.6692 42.9802 44.4033C43.4242 45.1374 44.0753 45.7282 44.854 46.1036C45.7072 46.5659 46.6524 46.839 47.6236 46.9038C48.5949 46.9687 49.5688 46.8237 50.4773 46.479C52.3912 45.7942 53.5231 44.45 53.6362 42.421C53.6877 41.513 53.6362 40.6 53.6362 39.687C53.6399 39.6498 53.6399 39.6125 53.6362 39.5754H50.2201V39.8543C50.2201 40.6 50.2201 41.3761 50.2201 42.0964C50.2378 42.46 50.137 42.8197 49.9324 43.1227C49.7278 43.4258 49.4302 43.6562 49.0831 43.7804C48.7546 43.9075 48.4068 43.9795 48.0541 43.9935C47.7553 44.0338 47.451 44.007 47.1642 43.915C46.8773 43.8231 46.6153 43.6684 46.3976 43.4626C46.1799 43.2567 46.0122 43.005 45.9071 42.7263C45.8019 42.4475 45.762 42.149 45.7904 41.8529V36.7804L45.811 36.8058ZM16.4392 39.5652C16.4392 39.6514 16.4392 39.7225 16.4392 39.7884C16.4392 40.5797 16.4392 41.371 16.4392 42.1572C16.4506 42.4665 16.3743 42.7727 16.2189 43.0415C16.0635 43.3103 15.8351 43.5311 15.5595 43.679C15.0359 43.9784 14.4219 44.0862 13.8257 43.9833C13.3161 43.9443 12.8423 43.7101 12.5057 43.3309C12.1691 42.9516 11.9966 42.4575 12.025 41.9543C12.025 38.1956 12.025 34.437 12.025 30.6732C12.0104 30.3407 12.0927 30.0111 12.2623 29.7234C12.432 29.4357 12.6817 29.202 12.9819 29.05C13.3226 28.8546 13.7038 28.738 14.0968 28.709C14.4899 28.68 14.8844 28.7394 15.2508 28.8826C15.6067 28.9938 15.9155 29.2176 16.1294 29.5192C16.3433 29.8209 16.4504 30.1837 16.4341 30.5514C16.4341 30.8812 16.4341 31.2109 16.4341 31.5406C16.4341 31.8703 16.4341 32.2812 16.4341 32.6616H19.84C19.84 31.9312 19.84 31.221 19.84 30.5109C19.8756 29.6653 19.6592 28.828 19.2176 28.1024C18.776 27.3767 18.1285 26.7944 17.355 26.4275C16.4634 25.9515 15.4729 25.6834 14.4597 25.6438C13.4465 25.6042 12.4376 25.7943 11.5105 26.1993C10.6049 26.5177 9.82823 27.1168 9.2968 27.9069C8.76538 28.6969 8.50777 29.6354 8.56254 30.5819C8.56254 34.4217 8.56254 38.2616 8.56254 42.0964C8.53659 42.8135 8.69746 43.5253 9.0298 44.1638C9.36214 44.8023 9.85487 45.3461 10.461 45.7435C11.3886 46.3881 12.4686 46.7868 13.5975 46.9014C14.7263 47.0159 15.8661 46.8425 16.9074 46.3978C17.8055 46.0838 18.5765 45.4918 19.105 44.71C19.6336 43.9283 19.8914 42.999 19.84 42.0609C19.84 41.3254 19.84 40.5848 19.84 39.8493C19.84 39.7529 19.84 39.6616 19.84 39.5652H16.4392ZM56.4196 21.0152V21.3703C56.4196 28.1167 56.4196 34.8647 56.4196 41.6145C56.4223 42.1429 56.4792 42.6698 56.5894 43.187C57.0318 45.3427 58.3695 46.4029 60.6023 46.4029H63.4577H63.7458V43.9072H63.3857C62.7374 43.9072 62.084 43.9072 61.4306 43.9072C61.0471 43.9165 60.6744 43.7818 60.3878 43.5304C60.1013 43.2789 59.9223 42.9295 59.8872 42.5529C59.8599 42.3851 59.8462 42.2155 59.846 42.0456V28.7304H63.1027V26.2652H59.8409V21.0304L56.4196 21.0152ZM22.1397 16.171V55.8935H24.6041V16.1862L22.1397 16.171ZM50.215 34.0464C50.215 32.9101 50.215 31.7688 50.215 30.6326C50.2418 30.2108 50.1143 29.7936 49.8556 29.4566C49.597 29.1197 49.2243 28.8854 48.8053 28.7964C48.458 28.7068 48.0985 28.6725 47.7403 28.6949C47.47 28.6933 47.2023 28.7472 46.9544 28.8532C46.7064 28.9592 46.4836 29.1151 46.3001 29.3108C46.1166 29.5064 45.9765 29.7377 45.8888 29.9897C45.801 30.2418 45.7675 30.5091 45.7904 30.7746V34.2543H50.1841C50.2098 34.163 50.215 34.1022 50.215 34.0464Z" fill="#797D82"/>
</svg>
