<svg width="137" height="29" viewBox="0 0 137 29" fill="none" xmlns="http://www.w3.org/2000/svg">
<g opacity="0.5">
<path d="M10.1973 12.2806C9.33568 14.5947 8.46901 16.912 7.59728 19.2328H6.85225C5.99065 16.9421 5.12736 14.6515 4.26238 12.3609C4.11598 12.8879 4.0662 13.4366 4.1154 13.981C4.1154 14.5328 4.1154 15.0896 4.1154 15.6413V28.8735C2.7478 29.0138 1.36984 29.0256 0 28.9086V0.061664C1.09981 0.00147218 2.18947 0.061664 3.31462 0.061664L7.20195 9.99834C7.32628 9.78673 7.43633 9.56722 7.53139 9.34124C7.92164 8.30795 8.28655 7.26462 8.68188 6.23133C9.12281 5.08768 9.59416 3.94906 10.0402 2.80541C10.4 1.8925 10.7446 0.974572 11.0994 0.0516299H14.3634C14.4749 0.437861 14.5053 28.2164 14.3988 28.9387H10.4101C10.4101 28.708 10.3696 28.4823 10.3696 28.2565V12.3007L10.1973 12.2806Z" fill="#797D82"/>
<path d="M25.7466 0.0568848H29.4362C30.5377 4.16331 31.6358 8.26973 32.7306 12.3762H32.8218C32.8596 12.2928 32.8868 12.2052 32.9029 12.1153C32.9029 11.9548 32.9029 11.7893 32.9029 11.6137V0.0719321H36.8257C36.9423 0.483243 36.9575 28.4073 36.8257 28.944C36.7456 28.9617 36.6643 28.9734 36.5824 28.9791C35.7512 28.9791 34.9201 28.9791 34.0889 28.9791C33.8152 28.9791 33.653 28.9038 33.582 28.6079C33.5111 28.312 33.4047 27.9558 33.3185 27.6047C32.8725 25.9143 32.4214 24.2239 31.9805 22.5335C31.7575 21.6708 31.5598 20.803 31.3419 19.9403C31.0631 18.8568 30.7692 17.7734 30.4854 16.6899C30.2725 15.8673 30.0647 15.0396 29.8518 14.212C29.8113 14.0615 29.7505 13.9161 29.6694 13.7104C29.5636 13.9179 29.5281 14.1535 29.568 14.3825C29.568 18.9805 29.568 23.5785 29.568 28.1765V28.8487C28.2857 28.9992 26.9905 29.0093 25.706 28.8788C25.5844 28.1464 25.6249 0.423052 25.7466 0.0568848Z" fill="#797D82"/>
<path d="M107.624 13.8406V28.9588C106.316 29.009 105.064 28.9588 103.777 28.9588V0.0566977C105.009 0.0065378 106.23 0.0566962 107.477 0.0316162C107.751 1.08999 108.009 2.10824 108.283 3.11645C108.627 4.39051 109.002 5.62445 109.342 6.92359C109.626 7.97193 109.874 9.0303 110.148 10.0837C110.32 10.7558 110.498 11.4279 110.68 12.0901C110.729 12.2069 110.789 12.3193 110.857 12.4261C110.955 12.2233 110.989 11.996 110.954 11.774C110.954 8.09566 110.954 4.41726 110.954 0.738872V0.0617147H114.877V28.9388H111.734C111.68 28.8278 111.633 28.7139 111.592 28.5977C111.187 26.9725 110.78 25.3473 110.371 23.7221C110.057 22.4782 109.732 21.2141 109.413 19.9953C109.112 18.855 108.812 17.7163 108.511 16.5794C108.298 15.7868 108.08 14.9993 107.862 14.2068C107.827 14.0764 107.776 13.951 107.73 13.8256L107.624 13.8406Z" fill="#797D82"/>
<path d="M103.062 28.9488H98.9065C98.724 28.086 98.5466 27.2383 98.3642 26.3906C98.1564 25.4476 97.9385 24.5096 97.7408 23.5666C97.609 22.9396 97.5127 22.3026 97.386 21.6756C97.0769 20.1357 96.7576 18.6008 96.4383 17.0659C96.3774 16.77 96.2964 16.479 96.2203 16.158L95.825 16.1179L95.7642 16.1831C95.7642 16.1831 95.7338 16.2182 95.7338 16.2332V28.9538C94.3552 29.014 93.0324 28.9538 91.6792 28.9839V0.0867802C91.8129 0.0602121 91.9484 0.0434474 92.0847 0.0366211H99.2967C99.9306 0.0513673 100.553 0.203767 101.121 0.483044C101.501 0.672328 101.822 0.957747 102.054 1.31021C102.285 1.66267 102.418 2.06957 102.439 2.48944C102.571 3.38976 102.637 4.29835 102.637 5.2081C102.611 7.44022 102.637 9.67735 102.637 11.9145C102.609 12.5715 102.521 13.2247 102.373 13.8657C102.295 14.2713 102.104 14.647 101.82 14.9503C101.537 15.2535 101.174 15.4721 100.772 15.5812C100.361 15.7216 100.331 15.7417 100.417 16.153C100.64 17.2314 100.888 18.3049 101.121 19.3833C101.197 19.7344 101.258 20.0855 101.334 20.4316C101.714 22.2825 102.094 24.1334 102.49 25.9793C102.677 26.8471 102.89 27.7098 103.088 28.5776C103.094 28.7019 103.086 28.8265 103.062 28.9488ZM95.7388 12.396H97.2593C98.273 12.396 98.4351 12.2305 98.4351 11.2524C98.4351 9.14231 98.4351 7.03225 98.4351 4.92219C98.4335 4.70827 98.4115 4.49498 98.3693 4.28516C98.3578 4.15593 98.3008 4.03481 98.2081 3.94307C98.1154 3.85134 97.993 3.79487 97.8624 3.78357C97.1681 3.75347 96.4687 3.78357 95.749 3.78357L95.7388 12.396Z" fill="#797D82"/>
<path d="M67.519 14.4073V3.72825C67.4827 3.04152 67.604 2.35557 67.8738 1.72186C68.0188 1.38551 68.2364 1.08462 68.5113 0.840276C68.7862 0.59593 69.1118 0.414038 69.4652 0.307347C70.118 0.0902005 70.8039 -0.0133236 71.4925 0.00137101C72.4858 0.021435 73.4792 0.021435 74.4726 0.00137101C75.1218 -0.00515109 75.768 0.0879142 76.3884 0.277252C76.8281 0.38329 77.2293 0.608372 77.5471 0.927296C77.8648 1.24622 78.0866 1.64639 78.1876 2.08301C78.3617 2.70032 78.4503 3.33815 78.4512 3.97905C78.4512 11.0282 78.4512 18.0757 78.4512 25.1214C78.4473 25.7981 78.3167 26.4682 78.066 27.0977C77.8936 27.5314 77.6132 27.9147 77.2507 28.2121C76.8882 28.5094 76.4556 28.711 75.9931 28.7982C75.6616 28.8812 75.3213 28.925 74.9794 28.9286C73.4995 28.9286 72.0196 28.9286 70.5396 28.8935C69.8688 28.8626 69.2265 28.6161 68.71 28.1912C68.0634 27.6402 67.6552 26.8645 67.5697 26.0243C67.5308 25.7401 67.5172 25.4531 67.5291 25.1666L67.519 14.4073ZM74.2851 14.4675V5.02238C74.2953 4.82688 74.2953 4.631 74.2851 4.43551C74.2729 4.26399 74.1975 4.10287 74.0732 3.98268C73.949 3.8625 73.7845 3.7916 73.611 3.78343C73.1751 3.78343 72.7393 3.78343 72.3085 3.78343C72.1706 3.77781 72.0354 3.82206 71.9282 3.90792C71.8209 3.99377 71.7489 4.11534 71.7256 4.24991C71.6611 4.5266 71.6238 4.80881 71.6141 5.0926C71.6141 11.3526 71.6141 17.6142 71.6141 23.8775C71.6141 24.038 71.6141 24.2035 71.6141 24.3791C71.68 25.0462 71.9081 25.2569 72.572 25.292C72.719 25.292 72.8609 25.292 73.0079 25.292C73.8948 25.292 74.3104 25.3321 74.3003 24.038C74.2749 20.8378 74.2851 17.6526 74.2851 14.4675Z" fill="#797D82"/>
<path d="M79.6066 0.0618896H83.6612C83.6612 0.347801 83.6966 0.608633 83.6966 0.869464C83.6966 8.56065 83.6966 16.2351 83.6966 23.8929C83.6966 24.1588 83.722 24.4242 83.7727 24.6854C83.7869 24.8491 83.8655 25.0008 83.9916 25.1077C84.1176 25.2146 84.2811 25.2683 84.4467 25.2572C84.8623 25.2572 85.2779 25.2572 85.6884 25.2572C85.7796 25.2572 85.8698 25.2392 85.9538 25.2043C86.0379 25.1693 86.114 25.1181 86.1777 25.0536C86.2415 24.9891 86.2915 24.9127 86.325 24.8288C86.3585 24.7449 86.3747 24.6552 86.3727 24.565C86.3727 24.3894 86.3727 24.2089 86.3727 24.0283V0.0669029H90.4729C90.4729 0.242462 90.5083 0.418022 90.5083 0.568502C90.5083 8.70444 90.5083 16.8437 90.5083 24.9863C90.5073 25.5038 90.453 26.0197 90.3462 26.5262C90.0319 28.031 89.2616 28.5878 87.8424 28.8737C87.5752 28.9232 87.3034 28.9451 87.0315 28.9389C85.6074 28.9389 84.1781 28.9389 82.7539 28.9389C82.1195 28.9141 81.5019 28.7293 80.9598 28.4022C80.5858 28.1868 80.2857 27.8653 80.0982 27.4793C79.7371 26.7534 79.563 25.9504 79.5914 25.1418V0.0618896H79.6066Z" fill="#797D82"/>
<path d="M127.547 28.9489H123.67C123.523 27.1783 123.376 25.4377 123.229 23.6771H119.808C119.641 25.4076 119.473 27.1432 119.301 28.8637C118.026 29.0185 116.738 29.0354 115.459 28.9138C115.5 28.4774 115.53 28.041 115.586 27.6047C115.682 26.787 115.799 25.9745 115.9 25.1619C116.022 24.1888 116.143 23.2157 116.255 22.2426C116.366 21.2695 116.442 20.3214 116.554 19.3634C116.686 18.2298 116.838 17.1012 116.975 15.9676C117.16 14.3725 117.345 12.7774 117.527 11.1823C117.684 9.80291 117.836 8.41849 117.993 7.03408C118.15 5.64967 118.333 4.20005 118.5 2.78554C118.602 1.988 118.708 1.19547 118.814 0.397927C118.83 0.28941 118.854 0.18214 118.885 0.0769043H124.374C124.435 0.543391 124.496 1.01489 124.552 1.49141C124.668 2.53474 124.78 3.58308 124.891 4.62641C124.988 5.51424 125.084 6.40206 125.175 7.2899C125.337 8.86993 125.439 10.46 125.682 12.03C125.9 13.4596 126.001 14.8991 126.189 16.3337C126.361 17.8385 126.498 19.3433 126.665 20.8481C126.893 22.8545 127.147 24.8609 127.375 26.8673C127.446 27.5545 127.486 28.2116 127.547 28.9489ZM122.697 19.885C122.798 19.1828 121.683 6.80334 121.419 6.34187C120.994 10.8563 120.512 15.3255 120.137 19.885H122.697Z" fill="#797D82"/>
<path d="M39.9832 20.8781H44.0073C44.0073 21.0988 44.0327 21.2894 44.0327 21.48C44.0327 22.413 44.0327 23.3409 44.0327 24.2689C44.0168 24.4117 44.0271 24.5561 44.0631 24.6953C44.1847 25.0012 44.3621 25.2671 44.7574 25.2621C45.1528 25.257 45.5532 25.2621 45.9485 25.2621C46.0442 25.2668 46.1398 25.2523 46.2297 25.2195C46.3196 25.1866 46.4018 25.1361 46.4715 25.0709C46.5411 25.0058 46.5967 24.9274 46.6348 24.8404C46.673 24.7534 46.6929 24.6597 46.6935 24.5648C46.7179 24.387 46.7298 24.2076 46.729 24.0281C46.729 22.7791 46.6986 21.5201 46.6935 20.2762C46.6806 19.8429 46.5218 19.4263 46.2424 19.0924C45.7356 18.4604 45.2288 17.8635 44.6916 17.2616C44.1543 16.6596 43.5765 16.0126 43.014 15.3906C42.3703 14.6683 41.7064 13.9661 41.088 13.2237C40.6459 12.7991 40.3004 12.2861 40.0744 11.7189C39.9832 11.411 39.9371 11.0917 39.9376 10.7709C39.9376 8.303 39.9376 5.83514 39.9376 3.36727C39.92 2.92499 39.9947 2.48388 40.1569 2.07139C40.3191 1.65891 40.5653 1.28387 40.8802 0.969628C41.0958 0.759039 41.3482 0.589065 41.6253 0.468029C42.2517 0.187003 42.9294 0.0351124 43.6171 0.0216064C44.9703 0.0216064 46.3286 0.0216052 47.6717 0.0517012C48.4749 0.0550789 49.2495 0.347458 49.851 0.874323C50.1715 1.18443 50.4084 1.56896 50.5403 1.99289C50.7004 2.52382 50.7857 3.07409 50.7937 3.6281C50.8292 5.02255 50.7937 6.41699 50.7937 7.81144C50.7937 7.93684 50.7937 8.05722 50.7633 8.1776C49.4247 8.3208 48.0752 8.33424 46.7341 8.21773C46.7341 8.03715 46.7087 7.84153 46.7087 7.65092C46.7087 6.80824 46.7087 5.97057 46.7087 5.14293C46.7077 4.92832 46.6941 4.71395 46.6682 4.50088C46.6676 4.40232 46.6469 4.3049 46.6071 4.21452C46.5674 4.12415 46.5095 4.04271 46.437 3.97516C46.3644 3.9076 46.2788 3.85535 46.1852 3.82155C46.0917 3.78776 45.9922 3.77314 45.8927 3.77858C45.5329 3.77858 45.173 3.77858 44.8081 3.77858C44.7039 3.77299 44.5996 3.78886 44.5018 3.82518C44.4041 3.86151 44.315 3.9175 44.2402 3.98961C44.1655 4.06173 44.1066 4.14842 44.0674 4.24419C44.0282 4.33996 44.0095 4.44273 44.0124 4.54603C44.0124 4.67143 44.0124 4.79683 44.0124 4.92223C44.0124 6.12105 44.0479 7.31987 44.0124 8.51367C44.0021 8.93983 44.0784 9.36369 44.2369 9.76006C44.3953 10.1564 44.6327 10.5172 44.9348 10.821C46.0549 12.07 47.1649 13.329 48.2799 14.588C48.7867 15.1348 49.2428 15.6865 49.7446 16.2232C50.4452 16.9546 50.8275 17.9292 50.8089 18.9369C50.8089 21.0336 50.8089 23.1252 50.8089 25.2169C50.8112 25.6989 50.7516 26.1793 50.6315 26.6465C50.5046 27.1887 50.2217 27.6829 49.8169 28.0692C49.4121 28.4556 48.9029 28.7175 48.3508 28.8234C48.0189 28.9043 47.6789 28.9481 47.3372 28.9538C45.8167 28.9538 44.3368 28.9538 42.8416 28.9137C42.415 28.9099 41.9948 28.8093 41.6135 28.6198C41.2322 28.4302 40.8999 28.1567 40.642 27.8202C40.1603 27.1643 39.9124 26.3685 39.9376 25.558C39.9376 24.1435 39.9376 22.734 39.9376 21.3195C39.9528 21.1941 39.968 21.0737 39.9832 20.8781Z" fill="#797D82"/>
<path d="M19.7661 16.0777V25.262H24.4086C24.5478 26.4677 24.5665 27.6841 24.4644 28.8935C24.0792 29.0039 16.4617 29.044 15.6609 28.9387C15.6451 28.9297 15.6314 28.9178 15.6203 28.9036C15.6069 28.891 15.5965 28.8756 15.5899 28.8584C15.5704 28.7355 15.5585 28.6116 15.5544 28.4872C15.5544 19.0772 15.5544 9.66558 15.5544 0.252243C15.5658 0.187864 15.5863 0.125387 15.6153 0.0666504H24.51C24.51 1.28052 24.51 2.48436 24.51 3.76344H19.756V12.3659C20.9724 12.401 22.1735 12.3659 23.4153 12.3659V16.0526L19.7661 16.0777Z" fill="#797D82"/>
<path d="M62.1668 0.0518799H66.2822C66.2822 0.242487 66.3126 0.413034 66.3126 0.583577C66.3126 8.81314 66.3126 17.0444 66.3126 25.2773C66.3398 26.0277 66.176 26.7728 65.8362 27.4442C65.6131 27.8765 65.2755 28.2406 64.8595 28.4977C64.4435 28.7548 63.9647 28.8952 63.4744 28.9039C61.7765 28.9791 60.0787 28.954 58.3808 28.9039C57.5875 28.8842 56.8335 28.5585 56.2795 27.9962C55.7256 27.4339 55.4156 26.6796 55.4159 25.8943C55.3601 24.2841 55.4159 22.674 55.4159 21.0639C55.4264 21.0031 55.4451 20.9441 55.4716 20.8883H59.4705C59.4705 21.0789 59.5009 21.2695 59.5009 21.4601C59.5009 22.353 59.5009 23.2458 59.5009 24.1437C59.4831 24.2852 59.4831 24.4285 59.5009 24.57C59.6073 24.9613 59.8202 25.2723 60.2713 25.2622C60.6311 25.2622 60.996 25.2622 61.3559 25.2622C61.4648 25.2691 61.5739 25.2526 61.6759 25.214C61.7778 25.1754 61.8701 25.1155 61.9466 25.0384C62.0231 24.9613 62.0818 24.8688 62.119 24.7672C62.1561 24.6656 62.1707 24.5573 62.1617 24.4496C62.1617 24.2891 62.1617 24.1286 62.1617 23.9481V0.0518799H62.1668Z" fill="#797D82"/>
<path d="M128.181 0.0618896H132.265V25.2572C133.847 25.3074 135.377 25.2572 136.888 25.2923C137.037 26.5084 137.037 27.7379 136.888 28.954H128.211C128.079 28.5577 128.054 0.693904 128.181 0.0618896Z" fill="#797D82"/>
<path d="M37.6367 0.0716553H39.8667C39.4613 2.22853 39.066 4.34026 38.6656 6.48209H37.6519L37.6367 0.0716553Z" fill="#797D82"/>
</g>
</svg>
