<svg width="12" height="24" viewBox="0 0 12 24" fill="none" xmlns="http://www.w3.org/2000/svg">
<path d="M7.91121 23.9809C7.79439 23.9857 7.71963 23.9952 7.64486 23.9952C6.04673 23.9952 4.45327 23.9905 2.85514 24C2.63084 24 2.57009 23.9381 2.57009 23.7095C2.57477 19.9182 2.57477 16.1222 2.57477 12.331C2.57477 12.231 2.57477 12.131 2.57477 12.0024C1.70561 12.0024 0.859813 12.0024 0 12.0024C0 10.6497 0 9.3209 0 7.95397C0.088785 7.95397 0.172897 7.95397 0.252336 7.95397C0.953271 7.95397 1.65421 7.9492 2.35514 7.95873C2.53271 7.95873 2.57944 7.90634 2.57944 7.73011C2.57009 6.668 2.57009 5.60112 2.57944 4.53901C2.58411 3.796 2.70093 3.07205 3.03738 2.40049C3.51869 1.45268 4.28037 0.838273 5.24299 0.457245C6.02804 0.142897 6.85514 0.028589 7.68692 0.0143005C9.04206 -0.00475093 10.3972 0.00477475 11.7523 1.19071e-05C11.8785 1.19071e-05 11.9813 -0.00475094 11.9813 0.176237C11.9766 1.48602 11.9766 2.7958 11.9766 4.10559C11.9766 4.11987 11.972 4.13416 11.9533 4.19608C11.8738 4.19608 11.785 4.19608 11.6963 4.19608C10.8551 4.19608 10.014 4.19132 9.1729 4.19608C8.68692 4.19608 8.29439 4.39612 8.04673 4.82954C7.97196 4.95814 7.92523 5.12484 7.92523 5.27725C7.91122 6.08693 7.92523 6.89662 7.91589 7.7063C7.91589 7.89681 7.97196 7.9492 8.15421 7.9492C9.32243 7.93968 10.4907 7.94444 11.6589 7.94444C11.7523 7.94444 11.8411 7.94444 12 7.94444C11.8364 9.30662 11.6776 10.6402 11.514 11.9881C10.2991 11.9881 9.11682 11.9881 7.91121 11.9881C7.91121 15.9937 7.91121 19.9754 7.91121 23.9809Z" fill="white"/>
</svg>
