<svg width="22" height="22" viewBox="0 0 22 22" fill="none" xmlns="http://www.w3.org/2000/svg">
<path d="M21.9893 10.9963C21.9893 12.5385 21.9582 14.0852 21.9981 15.6274C22.0646 18.3573 20.3486 20.4668 18.1625 21.4063C17.2846 21.783 16.3622 21.9824 15.4089 21.9824C12.4247 21.9869 9.436 22.0268 6.45178 21.9691C4.20363 21.9248 2.35457 20.9853 1.02874 19.1329C0.332566 18.1579 0 17.05 0 15.849C0 12.6715 0 9.49842 0 6.32092C0 3.72839 1.26375 1.91584 3.50746 0.737014C4.48299 0.227372 5.54277 0.01022 6.64688 0.00578831C9.54243 0.00578831 12.4424 -0.0119384 15.3379 0.0146516C17.5861 0.0323783 19.4618 0.892122 20.8452 2.70024C21.6168 3.71066 21.9893 4.87176 21.9893 6.14808C21.9893 7.76121 21.9893 9.37877 21.9893 10.9963ZM1.63622 10.9963C1.63622 12.6228 1.63622 14.2447 1.63622 15.8712C1.63622 16.598 1.80472 17.2804 2.18163 17.8964C3.17046 19.514 4.66479 20.3028 6.51829 20.3339C9.49365 20.3782 12.4734 20.3516 15.4532 20.3427C16.1849 20.3427 16.8944 20.192 17.555 19.8774C19.3553 19.0177 20.3619 17.6483 20.353 15.592C20.3353 12.4455 20.3486 9.299 20.3486 6.15251C20.3486 5.26175 20.0959 4.44632 19.5682 3.72839C18.5483 2.35014 17.1382 1.6721 15.4532 1.65437C12.4823 1.61892 9.51139 1.64107 6.54046 1.64551C5.90637 1.64551 5.29445 1.77402 4.70027 1.99561C3.06848 2.60275 1.55197 4.14054 1.62292 6.40512C1.67613 7.93848 1.63622 9.4674 1.63622 10.9963Z" fill="white"/>
<path d="M11.0189 15.6941C8.15886 15.6941 5.85307 13.4162 5.84864 10.5799C5.8442 7.78797 8.16773 5.50123 11.0101 5.50123C13.8613 5.4968 16.1759 7.7791 16.1804 10.5932C16.1804 13.4029 13.8701 15.6896 11.0189 15.6941ZM11.0189 14.0543C12.9656 14.0543 14.5441 12.4988 14.5397 10.5844C14.5353 8.6876 12.9567 7.13651 11.0189 7.13651C9.07231 7.13651 7.48486 8.68317 7.48486 10.5932C7.4893 12.5077 9.07231 14.0588 11.0189 14.0543Z" fill="white"/>
<path d="M16.779 3.9502C17.3776 3.9502 17.8654 4.45984 17.8654 5.0847C17.8609 5.70957 17.3687 6.21478 16.7701 6.21035C16.1804 6.20591 15.6971 5.7007 15.6971 5.08913C15.6926 4.46427 16.1804 3.9502 16.779 3.9502Z" fill="white"/>
</svg>
