<svg width="24" height="18" viewBox="0 0 24 18" fill="none" xmlns="http://www.w3.org/2000/svg">
<path d="M12.1527 18C9.45587 17.9093 6.89129 17.8387 4.32671 17.7329C3.77412 17.7076 3.21208 17.6169 2.67366 17.4808C1.66295 17.2288 0.963944 16.5786 0.604997 15.515C0.316895 14.6581 0.212989 13.776 0.137422 12.8788C-0.0278828 10.7719 -0.0278828 8.66494 0.0524079 6.558C0.0996378 5.36843 0.127976 4.16879 0.425524 3.01451C0.604997 2.32395 0.822254 1.64852 1.34651 1.14951C1.89909 0.620254 2.54614 0.302701 3.28293 0.267417C5.30437 0.161566 7.32108 0.0305121 9.34252 0.01035C12.063 -0.0198932 14.7881 0.0204312 17.5086 0.075877C18.6846 0.10108 19.87 0.166607 21.0366 0.327903C22.104 0.479119 22.9022 1.11423 23.3273 2.22314C23.6532 3.07499 23.776 3.96717 23.8468 4.87446C24.031 7.14774 24.0357 9.42102 23.9318 11.6943C23.8799 12.8486 23.8279 14.0079 23.5209 15.1319C23.1714 16.4223 22.4299 17.2742 21.1925 17.5665C20.7107 17.6774 20.2101 17.7177 19.7189 17.7379C17.1496 17.8337 14.585 17.9194 12.1527 18ZM9.54088 12.2689C11.6946 11.0794 13.8246 9.89987 15.9972 8.69518C13.8294 7.48545 11.6993 6.30093 9.54088 5.09624C9.54088 7.50058 9.54088 9.86458 9.54088 12.2689Z" fill="white"/>
</svg>
