<svg width="26" height="24" viewBox="0 0 26 24" fill="none" xmlns="http://www.w3.org/2000/svg">
<path d="M0.0360182 21.3042C2.89689 21.5945 5.47477 20.7818 7.8211 18.7964C5.36671 18.5526 3.72531 17.171 2.80942 14.5819C3.61211 14.6922 4.36335 14.7212 5.16089 14.4774C2.51613 13.5486 1.10627 11.5981 0.915892 8.45169C1.70829 8.86966 2.45438 9.17152 3.33426 9.18313C1.76489 7.85376 0.962201 6.12964 0.993073 3.95853C1.00851 2.96005 1.2452 2.01962 1.71344 1.13143C4.62062 4.96862 8.26875 7.09329 12.7607 7.4474C12.735 7.22681 12.7196 7.05265 12.699 6.87269C12.3285 3.65666 14.1809 0.73088 17.0109 0.121343C18.7861 -0.261795 20.3554 0.266471 21.683 1.64809C21.8888 1.85707 22.0637 1.90351 22.321 1.82805C23.3552 1.53199 24.338 1.10241 25.2899 0.521896C24.9246 1.88029 24.1734 2.90199 23.1546 3.76115C23.3861 3.71471 23.6228 3.67988 23.8543 3.62763C24.0962 3.56958 24.338 3.50573 24.5799 3.43026C24.8114 3.3606 25.0378 3.27933 25.2642 3.19225C25.4957 3.10517 25.7273 3.00649 26 2.95424C25.8662 3.16322 25.7376 3.38382 25.5935 3.587C24.9966 4.44035 24.3071 5.18921 23.5508 5.8568C23.4736 5.92646 23.4067 6.07739 23.4118 6.18189C23.453 8.2427 23.1957 10.2513 22.604 12.2018C21.4411 16.0448 19.4138 19.1563 16.3728 21.3797C14.8704 22.4769 13.229 23.1967 11.4744 23.6147C9.73521 24.0268 7.98575 24.1023 6.23115 23.8701C4.4714 23.6379 2.79913 23.0516 1.22462 22.1343C0.807837 21.8963 0.406491 21.6293 0 21.3739C0.0154364 21.3507 0.0257273 21.3274 0.0360182 21.3042Z" fill="white"/>
</svg>
