<svg width="20" height="24" viewBox="0 0 20 24" fill="none" xmlns="http://www.w3.org/2000/svg">
<path d="M8.36038 15.7326C8.25512 16.0998 8.16093 16.424 8.06675 16.7483C7.96148 17.1202 7.86176 17.4922 7.76204 17.8641C7.64015 18.3171 7.54597 18.7749 7.39084 19.2136C7.16923 19.8383 6.94762 20.463 6.64845 21.0591C6.37144 21.6074 6.00578 22.1272 5.65675 22.647C5.36866 23.0714 5.04179 23.4815 4.72045 23.8916C4.67059 23.9536 4.53209 24.0156 4.47114 23.9965C4.39358 23.9726 4.30494 23.8677 4.29386 23.7914C4.08333 22.3466 3.97252 20.8922 4.19413 19.4425C4.28278 18.856 4.4656 18.2838 4.60411 17.702C4.69275 17.3205 4.7814 16.9343 4.87558 16.548C4.99192 16.0759 5.11381 15.5991 5.23569 15.127C5.41298 14.4308 5.59581 13.7393 5.77864 13.0431C5.92822 12.4852 6.07227 11.9225 6.23293 11.3646C6.3105 11.0975 6.14983 10.8782 6.07781 10.6398C5.83958 9.81958 5.68999 9.00415 5.86728 8.15058C5.9947 7.53544 6.18307 6.9489 6.58751 6.42913C7.11383 5.752 7.82298 5.30852 8.82576 5.35621C9.68449 5.39912 10.2828 5.88075 10.5044 6.56265C10.7538 7.31608 10.643 8.06952 10.4158 8.81341C10.172 9.62406 9.91164 10.4252 9.67341 11.2358C9.52383 11.7413 9.30776 12.2468 9.27452 12.7618C9.22466 13.5295 9.57369 14.2019 10.3549 14.6358C10.9754 14.9792 11.6347 15.0459 12.366 14.8933C13.3355 14.6883 14.0059 14.1685 14.571 13.5104C15.2413 12.7332 15.6181 11.851 15.9117 10.9211C16.2718 9.76712 16.4103 8.60359 16.3826 7.41622C16.3605 6.31946 16.0225 5.30375 15.3023 4.39773C14.7593 3.72059 14.0447 3.21513 13.1582 2.88133C12.5931 2.66674 12.0335 2.48077 11.413 2.45693C10.7427 2.43308 10.0668 2.33294 9.40748 2.39017C7.41854 2.57614 5.7731 3.32957 4.53209 4.70292C4.03901 5.2513 3.64565 5.84737 3.38526 6.49112C2.98636 7.48298 2.80908 8.51299 2.92542 9.56684C3.00852 10.306 3.25783 11.0165 3.82294 11.5887C4.21075 11.9797 4.13873 12.3612 4.00576 12.7808C3.93374 13.0002 3.86726 13.2196 3.81186 13.4437C3.71767 13.8442 3.45728 14.0493 2.91988 13.8252C1.84508 13.3769 1.16363 12.6378 0.687171 11.7222C0.0223437 10.4395 -0.0940012 9.08522 0.0611251 7.72141C0.243952 6.1764 0.93648 4.77921 2.0002 3.52508C2.77029 2.61906 3.72875 1.8847 4.84788 1.3077C5.72323 0.854692 6.65399 0.535199 7.64015 0.315846C8.91994 0.0297323 10.2164 -0.0561017 11.5183 0.0345008C12.4934 0.101261 13.4352 0.30154 14.3494 0.625802C15.9283 1.18849 17.2192 2.0516 18.2275 3.22943C18.8259 3.93041 19.2857 4.69815 19.5849 5.53741C19.7622 6.03334 19.9117 6.52927 19.9284 7.04904C19.9505 7.63558 20.0281 8.22211 19.9893 8.7991C19.9505 9.41425 19.8065 10.0294 19.6957 10.6398C19.5129 11.6507 19.1195 12.6044 18.5932 13.5152C18.1389 14.2972 17.5682 15.0078 16.8314 15.6229C16.089 16.2428 15.2358 16.7054 14.2607 17.0106C13.3355 17.3014 12.3881 17.4063 11.4241 17.3062C10.2773 17.1822 9.30776 16.7387 8.58199 15.9376C8.53213 15.8899 8.45457 15.8232 8.36038 15.7326Z" fill="white"/>
</svg>
